<?xml version="1.0" standalone="no"?>
<!DOCTYPE svg PUBLIC "-//W3C//DTD SVG 20010904//EN"
 "http://www.w3.org/TR/2001/REC-SVG-20010904/DTD/svg10.dtd">
<svg version="1.0" xmlns="http://www.w3.org/2000/svg"
 width="512.000000pt" height="512.000000pt" viewBox="0 0 512.000000 512.000000"
 preserveAspectRatio="xMidYMid meet">
<metadata>
Created by potrace 1.11, written by Peter Selinger 2001-2013
</metadata>
<g transform="translate(0.000000,512.000000) scale(0.100000,-0.100000)"
fill="#000000" stroke="none">
<path d="M2790 4603 c-415 -35 -813 -272 -1028 -613 -19 -30 -36 -57 -38 -59
-2 -2 -36 -6 -76 -8 -386 -22 -740 -250 -922 -593 -33 -62 -86 -201 -93 -244
-9 -53 -22 -76 -50 -87 -151 -57 -305 -179 -408 -323 -193 -270 -226 -629 -87
-936 126 -281 394 -481 717 -537 29 -5 538 -11 550 -6 7 2 11 37 10 85 l0 82
-265 2 c-292 2 -355 12 -487 74 -318 148 -496 501 -425 840 58 275 238 481
505 580 67 25 75 38 102 165 69 324 328 598 651 689 108 30 156 38 254 38 99
0 122 10 159 69 17 28 31 52 31 55 0 2 20 32 44 65 182 250 459 423 758 475
629 108 1216 -278 1369 -901 11 -43 27 -87 36 -97 9 -10 42 -25 72 -34 481
-133 792 -546 776 -1030 -14 -425 -289 -795 -692 -933 -48 -16 -100 -32 -114
-35 -77 -13 -156 -19 -264 -21 l-120 -1 -1 -74 c0 -41 1 -80 3 -86 4 -12 223
-12 323 1 307 38 607 213 796 464 112 150 189 320 220 489 2 12 7 34 10 50 13
59 11 299 -2 377 -76 435 -393 806 -801 936 l-72 23 -12 50 c-6 28 -27 91 -45
139 -169 442 -564 768 -1032 853 -81 14 -273 24 -352 17z"/>
<path d="M3465 2036 c-16 -8 -111 -95 -210 -195 l-180 -181 61 -60 60 -61 104
105 c58 58 107 106 110 106 11 0 3 -845 -8 -885 -21 -75 -78 -134 -160 -165
-43 -16 -95 -18 -562 -18 -283 -1 -522 -1 -531 -2 -13 0 -16 -14 -16 -85 l0
-86 539 1 c580 1 584 2 688 56 91 47 166 137 201 241 22 66 23 79 25 503 1
239 2 436 3 438 0 1 49 -45 107 -104 l106 -106 27 28 c15 16 42 44 60 62 l33
32 -178 181 c-99 99 -193 187 -211 195 -38 16 -31 16 -68 0z"/>
<path d="M1967 1964 c-1 -1 -25 -4 -53 -8 -100 -12 -175 -48 -250 -121 -63
-62 -110 -153 -120 -235 -4 -30 -8 -220 -8 -422 0 -203 -2 -368 -4 -368 -2 0
-49 45 -103 100 -55 55 -104 100 -110 100 -6 0 -35 -25 -66 -56 l-55 -56 184
-184 c180 -181 223 -213 265 -200 10 3 103 91 208 196 l190 190 -60 60 -60 60
-107 -107 c-60 -59 -108 -103 -109 -98 -4 65 1 751 6 776 16 75 77 148 152
181 21 10 168 14 573 18 l545 5 1 83 c2 77 1 82 -20 83 -42 1 -998 4 -999 3z"/>
</g>
</svg>
