<svg xmlns="http://www.w3.org/2000/svg" xmlns:xlink="http://www.w3.org/1999/xlink" id="Capa_1" x="0" y="0" enable-background="new 0 0 479.924 479.924" version="1.1" viewBox="0 0 479.924 479.924" xml:space="preserve"><linearGradient id="SVGID_1_" x1="-59.393" x2="12.196" y1="609.629" y2="609.629" gradientTransform="matrix(8 0 0 -8 455.0611 5084.9956)" gradientUnits="userSpaceOnUse"><stop offset="0" stop-color="#E93E3A"/><stop offset=".356" stop-color="#ED683C"/><stop offset=".717" stop-color="#F3903F"/><stop offset="1" stop-color="#FDC70C"/></linearGradient><path fill="url(#SVGID_1_)" d="M396.791,147.784C381.287,78.867,312.85,35.567,243.933,51.071	c-34.888,7.849-64.896,29.944-82.75,60.928h-1.192c-50.189,0.125-93.158,36.006-102.232,85.368	c-45.636,16.715-69.082,67.26-52.367,112.897C18.089,344.93,51.073,367.986,87.991,368h40v-16h-40	c-39.765-0.004-71.997-32.242-71.993-72.007c0.003-31.748,20.8-59.746,51.193-68.921c3.003-0.915,5.193-3.503,5.6-6.616	c5.841-43.714,43.097-76.38,87.2-76.456c1.256,0,2.488,0.088,3.72,0.168l1.6,0.104c3.145,0.223,6.118-1.456,7.552-4.264	c28.689-54.746,96.326-75.869,151.072-47.18c30.494,15.98,51.936,45.107,58.136,78.972c0.576,3.191,3.022,5.719,6.192,6.4	c51.804,11.285,84.652,62.429,73.366,114.234c-9.596,44.052-48.554,75.49-93.638,75.566h-16v16h16	c61.856-0.037,111.97-50.211,111.933-112.067C479.894,205.219,445.791,160.854,396.791,147.784L396.791,147.784z"/><g><linearGradient id="SVGID_2_" x1="-59.393" x2="12.196" y1="590.624" y2="590.624" gradientTransform="matrix(8 0 0 -8 455.0611 5084.9956)" gradientUnits="userSpaceOnUse"><stop offset="0" stop-color="#E93E3A"/><stop offset=".356" stop-color="#ED683C"/><stop offset=".717" stop-color="#F3903F"/><stop offset="1" stop-color="#FDC70C"/></linearGradient><path fill="url(#SVGID_2_)" d="M356.279,335.6l11.312-11.312l-33.944-33.944c-3.124-3.123-8.188-3.123-11.312,0 l-33.944,33.944l11.312,11.312l20.288-20.288V392c0,13.255-10.745,24-24,24h-96v16h96c22.08-0.026,39.974-17.92,40-40v-76.688 L356.279,335.6z"/><linearGradient id="SVGID_3_" x1="-59.393" x2="12.196" y1="590.125" y2="590.125" gradientTransform="matrix(8 0 0 -8 455.0611 5084.9956)" gradientUnits="userSpaceOnUse"><stop offset="0" stop-color="#E93E3A"/><stop offset=".356" stop-color="#ED683C"/><stop offset=".717" stop-color="#F3903F"/><stop offset="1" stop-color="#FDC70C"/></linearGradient><path fill="url(#SVGID_3_)" d="M159.991,404.688V336c0-13.255,10.745-24,24-24h96v-16h-96c-22.08,0.026-39.974,17.92-40,40 v68.688L123.703,384.4l-11.312,11.312l33.944,33.944c3.124,3.123,8.188,3.123,11.312,0l33.944-33.944L180.279,384.4 L159.991,404.688z"/></g></svg>